<svg xmlns="http://www.w3.org/2000/svg" viewBox="0 0 512 512"><path d="M496.64 424.96l-71.68-71.68c23.04-35.84 35.84-76.8 35.84-122.88C460.8 102.4 358.4 0 230.4 0S0 102.4 0 230.4s102.4 230.4 230.4 230.4c46.08 0 87.04-12.8 122.88-35.84l71.68 71.68c20.48 20.48 51.2 20.48 71.68 0 20.48-20.48 20.48-51.2 0-71.68zM230.4 409.6c-99.84 0-179.2-79.36-179.2-179.2S130.56 51.2 230.4 51.2s179.2 79.36 179.2 179.2-81.92 179.2-179.2 179.2z"/><path d="M332.8 204.8H256V128c0-15.36-10.24-25.6-25.6-25.6-15.36 0-25.6 12.8-25.6 25.6v76.8H128c-12.8 0-25.6 10.24-25.6 25.6 0 15.36 10.24 25.6 25.6 25.6h76.8v76.8c0 15.36 10.24 25.6 25.6 25.6 15.36 0 25.6-10.24 25.6-25.6V256h76.8c15.36 0 25.6-10.24 25.6-25.6 0-15.36-12.8-25.6-25.6-25.6z"/></svg>