<svg xmlns="http://www.w3.org/2000/svg" width="256" height="73" fill="none"><path fill="#343433" d="M13.134.252C7.91 2.44 2.169 8.613.355 16.368c-2.297 9.823 7.26 13.978 8.045 12.617.922-1.6-1.713-2.141-2.255-7.238-.701-6.583 2.36-13.939 6.212-17.166.715-.6.681.235.681 1.778 0 2.76-.152 27.543-.152 32.715 0 6.998-.29 9.208-.809 11.392-.525 2.212-1.371 3.708-.731 4.284.716.644 3.773-.889 5.543-3.358 2.122-2.962 2.864-6.52 2.998-10.383.161-4.657.154-12.047.161-16.262.006-3.865.065-15.185-.068-21.99-.032-1.67-4.662-3.42-6.846-2.505zm185.471 32.751c-.168 3.639-.974 6.482-1.973 8.488-1.935 3.884-5.95 5.09-7.655-.493-.929-3.043-.973-8.125-.305-12.371.68-4.326 2.579-7.593 5.722-7.298 3.101.291 4.553 4.287 4.211 11.675zM146.33 55.576c-.042 6.045-.993 11.345-3.033 12.885-2.894 2.183-6.784.545-5.978-3.866.712-3.903 4.083-7.89 9.02-12.76 0 0 .01 1.11-.009 3.741zm-.79-22.608c-.177 3.314-1.036 6.642-1.973 8.523-1.935 3.884-5.979 5.098-7.655-.493-1.146-3.82-.872-8.763-.305-11.878.736-4.041 2.52-7.79 5.722-7.79 3.114 0 4.65 3.416 4.211 11.638zm-30.282-.05c-.19 3.509-.875 6.442-1.973 8.573-1.988 3.857-5.921 5.08-7.655-.493-1.251-4.018-.825-9.497-.305-12.457.772-4.393 2.705-7.507 5.722-7.212 3.1.303 4.606 4.287 4.211 11.589zm138.776 4.099c-.757 0-1.103.78-1.39 2.095-.991 4.572-2.035 5.603-3.379 5.603-1.503 0-2.853-2.263-3.2-6.794-.273-3.563-.229-10.122.12-16.646.071-1.34-.299-2.667-3.894-3.973-1.547-.562-3.796-1.39-4.916 1.313-3.164 7.637-4.402 13.7-4.693 16.162-.015.128-.172.154-.199-.144-.186-1.972-.6-5.557-.652-13.088-.01-1.47-.321-2.72-1.943-3.744-1.053-.665-4.248-1.84-5.399-.442-.997 1.143-2.152 4.22-3.351 7.868a656.904 656.904 0 01-1.654 4.97s.013-7.999.024-11.033c.005-1.145-.78-1.526-1.017-1.595-1.065-.31-3.165-.826-4.056-.826-1.1 0-1.369.614-1.369 1.51 0 .118-.173 10.532-.173 17.814l.001 1.028c-.608 3.347-2.58 7.89-4.725 7.89-2.148 0-3.161-1.899-3.161-10.58 0-5.065.152-7.267.226-10.93.044-2.11.128-3.73.123-4.098-.016-1.127-1.965-1.696-2.873-1.906-.911-.211-1.703-.294-2.322-.258-.875.05-1.495.623-1.495 1.413 0 .424.005 1.23.005 1.23-1.127-1.773-2.941-3.006-4.147-3.363-3.25-.965-6.641-.11-9.199 3.47-2.033 2.843-3.259 6.064-3.741 10.692-.353 3.383-.238 6.814.389 9.715-.757 3.274-2.163 4.615-3.702 4.615-2.235 0-3.855-3.647-3.667-9.956.124-4.15.954-7.061 1.862-11.274.387-1.796.072-2.736-.716-3.637-.724-.827-2.265-1.25-4.48-.73-1.578.37-3.835.769-5.899 1.075 0 0 .125-.498.227-1.374.537-4.595-4.457-4.222-6.05-2.755-.951.877-1.598 1.91-1.844 3.768-.39 2.95 2.015 4.34 2.015 4.34-.788 3.612-2.723 8.33-4.72 11.742-1.069 1.827-1.887 3.182-2.944 4.621a700.11 700.11 0 01.113-17.33c.044-2.11.128-3.687.124-4.055-.012-.824-.494-1.136-1.495-1.53a10.632 10.632 0 00-3.02-.675c-1.371-.106-2.197.62-2.175 1.48.004.163.004 1.16.004 1.16-1.127-1.772-2.941-3.005-4.147-3.362-3.25-.965-6.641-.11-9.199 3.47-2.033 2.843-3.364 6.834-3.741 10.657-.351 3.562-.287 6.59.192 9.14-.516 2.555-2.002 5.226-3.682 5.226-2.148 0-3.37-1.9-3.37-10.581 0-5.065.152-7.267.227-10.93.044-2.11.127-3.73.123-4.098-.016-1.127-1.966-1.695-2.873-1.906-.949-.22-1.769-.3-2.398-.253-.83.061-1.414.805-1.414 1.36v1.277c-1.128-1.772-2.941-3.005-4.148-3.362-3.25-.965-6.622-.096-9.199 3.47-1.68 2.324-3.04 4.9-3.74 10.606a35.636 35.636 0 00-.28 4.635c-.67 4.098-3.63 8.821-6.05 8.821-1.417 0-2.767-2.748-2.767-8.603 0-7.8.483-18.906.565-19.976 0 0 3.059-.052 3.65-.06 1.527-.016 2.908.02 4.94-.084 1.02-.052 2.002-3.71.95-4.163-.477-.205-3.847-.384-5.183-.412-1.123-.025-4.25-.257-4.25-.257s.28-7.372.346-8.15c.055-.65-.785-.984-1.266-1.186-1.17-.495-2.218-.733-3.46-.989-1.716-.354-2.494-.007-2.646 1.44-.229 2.198-.347 8.634-.347 8.634-1.26 0-5.56-.246-6.82-.246-1.17 0-2.432 5.032-.814 5.094 1.86.072 5.104.135 7.254.2 0 0-.096 11.288-.096 14.774 0 .37.002.728.004 1.074-1.183 6.168-5.351 9.5-5.351 9.5.895-4.08-.934-7.145-4.227-9.74-1.214-.955-3.61-2.764-6.29-4.747 0 0 1.553-1.53 2.93-4.608.975-2.181 1.017-4.676-1.377-5.226-3.956-.91-7.218 1.995-8.19 5.097-.755 2.403-.353 4.186 1.124 6.038.108.135.225.274.345.413-.892 1.72-2.12 4.038-3.158 5.835-2.884 4.99-5.063 8.936-6.71 8.936-1.315 0-1.298-4.007-1.298-7.758 0-3.234.24-8.097.43-13.13.063-1.665-.77-2.614-2.165-3.473-.848-.522-2.657-1.548-3.705-1.548-1.57 0-6.095.214-10.371 12.584-.54 1.559-1.598 4.4-1.598 4.4l.091-14.876c0-.349-.186-.686-.611-.916-.72-.392-2.645-1.192-4.357-1.192-.815 0-1.222.38-1.222 1.135l-.15 23.273c0 1.769.047 3.832.222 4.734.174.903.456 1.638.805 2.075.35.436.753.77 1.419.907.62.127 4.011.563 4.188-.733.21-1.554.22-3.234 2-9.501 2.773-9.757 6.388-14.517 8.088-16.208.298-.295.637-.313.62.17-.072 2.14-.327 7.485-.499 12.025-.46 12.153 1.75 14.405 4.91 14.405 2.417 0 5.824-2.401 9.476-8.48a2141 2141 0 006.076-10.18c1.107 1.024 2.35 2.127 3.59 3.305 2.885 2.738 3.832 5.34 3.204 7.808-.48 1.886-2.29 3.83-5.512 1.941-.94-.551-1.34-.978-2.284-1.6-.507-.333-1.282-.433-1.746-.083-1.206.91-1.896 2.066-2.29 3.498-.383 1.394 1.012 2.13 2.46 2.775 1.245.554 3.922 1.057 5.63 1.114 6.652.222 11.981-3.212 15.691-12.072.664 7.652 3.49 11.981 8.4 11.981 3.284 0 6.575-4.243 8.015-8.418.413 1.702 1.025 3.182 1.815 4.433 3.783 5.995 11.123 4.705 14.81-.386 1.14-1.573 1.314-2.138 1.314-2.138.538 4.807 4.409 6.486 6.625 6.486 2.482 0 5.045-1.173 6.841-5.217.211.439.441.858.692 1.255 3.783 5.995 11.124 4.705 14.811-.386.174-.239.325-.455.456-.65l.108 3.158-3.394 3.113c-5.69 5.215-10.012 9.17-10.33 13.777-.405 5.873 4.356 8.056 7.963 8.342 3.823.304 7.104-1.81 9.117-4.769 1.772-2.604 2.932-8.21 2.846-13.745-.033-2.217-.09-5.035-.133-8.057 1.997-2.32 4.248-5.251 6.32-8.682 2.258-3.74 4.678-8.762 5.917-12.67 0 0 2.102.018 4.346-.129.718-.047.924.1.791.626-.16.636-2.835 10.952-.393 17.825 1.67 4.705 5.437 6.218 7.67 6.218 2.614 0 5.115-1.974 6.455-4.905.162.326.33.642.515.935 3.783 5.995 11.098 4.696 14.811-.387.838-1.147 1.313-2.138 1.313-2.138.797 4.975 4.666 6.512 6.882 6.512 2.308 0 4.499-.947 6.276-5.152.075 1.852.191 3.366.376 3.843.112.292.768.658 1.245.835 2.112.783 4.265.413 5.062.252.552-.112.983-.555 1.042-1.698.155-3.002.06-8.047.97-11.796 1.527-6.292 2.953-8.732 3.629-9.94.378-.678.805-.79.82-.073.032 1.45.104 5.707.696 11.427.435 4.206 1.015 6.692 1.462 7.48 1.274 2.25 2.846 2.356 4.127 2.356.815 0 2.519-.225 2.367-1.657-.075-.698.055-5.012 1.562-11.21.983-4.048 2.623-7.705 3.215-9.043.218-.493.32-.104.316-.028-.125 2.787-.404 11.905.731 16.892 1.54 6.756 5.993 7.512 7.545 7.512 3.313 0 6.023-2.52 6.935-9.151.22-1.596-.105-2.828-1.081-2.828z"/></svg>