<svg width="185" height="77" xmlns="http://www.w3.org/2000/svg"><path d="M26.752 28.348v-5.056h10.944V58.94c0 3.285-.661 6.25-1.984 8.896-1.28 2.688-3.264 4.821-5.952 6.4-2.645 1.579-5.952 2.368-9.92 2.368-5.29 0-9.579-1.259-12.864-3.776-3.285-2.475-5.163-5.845-5.632-10.112H12.16c.341 1.365 1.152 2.432 2.432 3.2 1.28.81 2.859 1.216 4.736 1.216 2.261 0 4.053-.661 5.376-1.984 1.365-1.28 2.048-3.35 2.048-6.208v-5.056c-1.067 1.664-2.539 3.03-4.416 4.096-1.877 1.024-4.075 1.536-6.592 1.536-2.944 0-5.61-.747-8-2.24-2.39-1.536-4.288-3.69-5.696-6.464C.683 47.996 0 44.753 0 41.084c0-3.67.683-6.89 2.048-9.664 1.408-2.773 3.307-4.907 5.696-6.4 2.39-1.493 5.056-2.24 8-2.24 2.517 0 4.715.512 6.592 1.536 1.92 1.024 3.392 2.368 4.416 4.032zm-2.304 6.336c-1.493-1.579-3.328-2.368-5.504-2.368-2.176 0-4.032.79-5.568 2.368-1.493 1.536-2.24 3.67-2.24 6.4 0 2.73.747 4.907 2.24 6.528 1.536 1.579 3.392 2.368 5.568 2.368 2.176 0 4.01-.79 5.504-2.368 1.536-1.579 2.304-3.733 2.304-6.464 0-2.73-.768-4.885-2.304-6.464zM44.59 13.692c0-1.707.597-3.115 1.791-4.224 1.238-1.152 2.817-1.728 4.737-1.728 1.877 0 3.413.576 4.607 1.728 1.238 1.11 1.856 2.517 1.856 4.224 0 1.664-.618 3.072-1.856 4.224-1.194 1.11-2.73 1.664-4.608 1.664-1.92 0-3.498-.555-4.735-1.664-1.195-1.152-1.792-2.56-1.792-4.224zm1.023 9.6h10.945v35.712H45.614zm24.444 1.728c2.389-1.493 5.055-2.24 8-2.24 2.346 0 4.48.49 6.4 1.472 1.962.981 3.498 2.304 4.608 3.968V11.644h.791l4.86 4.86 5.292 5.292v37.208H89.065v-5.12c-1.024 1.707-2.496 3.072-4.416 4.096-1.878 1.024-4.075 1.536-6.592 1.536-2.944 0-5.611-.747-8-2.24-2.39-1.536-4.288-3.69-5.696-6.464-1.366-2.816-2.048-6.059-2.048-9.728 0-3.67.682-6.89 2.048-9.664 1.408-2.773 3.306-4.907 5.696-6.4zm16.703 9.664c-1.493-1.579-3.328-2.368-5.504-2.368-2.176 0-4.032.79-5.568 2.368-1.493 1.536-2.24 3.67-2.24 6.4 0 2.73.747 4.907 2.24 6.528 1.536 1.579 3.392 2.368 5.568 2.368 2.176 0 4.011-.79 5.504-2.368 1.536-1.579 2.304-3.733 2.304-6.464 0-2.73-.767-4.885-2.303-6.464zm18.158 22.304c0-.64.224-1.176.672-1.608.464-.432 1.056-.648 1.776-.648.704 0 1.28.216 1.728.648.464.432.696.968.696 1.608 0 .624-.232 1.152-.696 1.584-.448.416-1.024.624-1.728.624-.72 0-1.312-.208-1.776-.624a2.116 2.116 0 01-.672-1.584zm16.517-9.48v-1.896h4.104V58.98c0 1.232-.248 2.344-.744 3.336-.48 1.008-1.224 1.808-2.232 2.4-.992.592-2.232.888-3.72.888-1.984 0-3.592-.472-4.824-1.416-1.232-.928-1.936-2.192-2.112-3.792h4.056c.128.512.432.912.912 1.2.48.304 1.072.456 1.776.456.848 0 1.52-.248 2.016-.744.512-.48.768-1.256.768-2.328v-1.896c-.4.624-.952 1.136-1.656 1.536-.704.384-1.528.576-2.472.576-1.104 0-2.104-.28-3-.84-.896-.576-1.608-1.384-2.136-2.424-.512-1.056-.768-2.272-.768-3.648 0-1.376.256-2.584.768-3.624.528-1.04 1.24-1.84 2.136-2.4.896-.56 1.896-.84 3-.84.944 0 1.768.192 2.472.576.72.384 1.272.888 1.656 1.512zm-2.928 1.488c-.816 0-1.512.296-2.088.888-.56.576-.84 1.376-.84 2.4s.28 1.84.84 2.448c.576.592 1.272.888 2.088.888a2.73 2.73 0 002.064-.888c.576-.592.864-1.4.864-2.424s-.288-1.832-.864-2.424a2.73 2.73 0 00-2.064-.888zm15.906-2.88a4.572 4.572 0 012.399-.648v4.344h-1.128c-1.023 0-1.791.224-2.304.672-.512.432-.767 1.2-.767 2.304v6.216h-4.105V45.612h4.105v2.232a5.291 5.291 0 011.8-1.728zm4.433 9.84c-.592-1.04-.888-2.256-.888-3.648 0-1.376.304-2.584.912-3.624a6.166 6.166 0 012.496-2.424c1.056-.56 2.24-.84 3.552-.84 1.312 0 2.496.28 3.552.84a6.166 6.166 0 012.496 2.424c.608 1.04.912 2.248.912 3.624s-.312 2.592-.936 3.648a6.172 6.172 0 01-2.52 2.4c-1.056.56-2.24.84-3.552.84-1.312 0-2.496-.28-3.552-.84a6.253 6.253 0 01-2.472-2.4zm8.856-3.648c0-1.072-.272-1.896-.816-2.472a2.561 2.561 0 00-1.968-.864c-.8 0-1.464.288-1.992.864-.528.56-.792 1.384-.792 2.472 0 1.072.256 1.896.768 2.472a2.561 2.561 0 001.968.864c.784 0 1.448-.288 1.992-.864.56-.576.84-1.4.84-2.472zm15.473 6.696V57.18c-.416.592-.984 1.072-1.704 1.44-.704.352-1.488.528-2.352.528-1.024 0-1.928-.224-2.712-.672-.784-.464-1.392-1.128-1.824-1.992-.432-.864-.648-1.88-.648-3.048v-7.824h4.08v7.272c0 .896.232 1.592.696 2.088.464.496 1.088.744 1.872.744.8 0 1.432-.248 1.896-.744.464-.496.696-1.192.696-2.088v-7.272h4.104v13.392zm12.812-13.008c.704-.384 1.528-.576 2.472-.576 1.104 0 2.104.28 3 .84.896.56 1.6 1.36 2.112 2.4.528 1.04.792 2.248.792 3.624s-.264 2.592-.792 3.648c-.512 1.04-1.216 1.848-2.112 2.424-.896.56-1.896.84-3 .84-.928 0-1.752-.192-2.472-.576-.704-.384-1.256-.88-1.656-1.488v8.256h-4.104V45.612h4.104v1.896c.4-.624.952-1.128 1.656-1.512zm1.248 3c-.816 0-1.512.296-2.088.888-.56.592-.84 1.4-.84 2.424s.28 1.832.84 2.424c.576.592 1.272.888 2.088.888.816 0 1.512-.296 2.088-.888.576-.608.864-1.424.864-2.448s-.288-1.824-.864-2.4c-.56-.592-1.256-.888-2.088-.888z" fill="#fff"/><path d="M111.22 32V0h-32l10 10h11.992v11.992z" fill="#faff09"/></svg>